{"title":"The Big Bang Theory - S05E13 - 720p WEB-DL H.264 {$H@uN}","uid":6972993,"size":209865886,"categoryP":"video","categoryS":"hd___tv_shows","magnet":"?xt=urn:btih:f2bed4bb8b147e5dd9d0569cf98b8b7f4eb9694c&amp;dn=The+Big+Bang+Theory+-+S05E13+-+720p+WEB-DL+H.264+%7B%24H%40uN%7D&amp;tr=udp%3A%2F%2Ftracker.openbittorrent.com%3A80&amp;tr=udp%3A%2F%2Fopen.demonii.com%3A1337&amp;tr=udp%3A%2F%2Ftracker.coppersurfer.tk%3A6969&amp;tr=udp%3A%2F%2Fexodus.desync.com%3A6969","seeders":1,"leechers":11,"uploader":"ShaunGP","files":-1,"time":1327105664,"description":"&quot;WEB-DL means straight from iTunes where they release &quot;Bluray&quot; quality episodes.\n Such episodes are without any Logo and Caps.&quot;\n\nThe Big Bang Theory - S05E13 - The Recombination Hypothesis - 720p WEB-DL H.264 {$H@uN}\n\nGeneral:\n\nComplete name                  : The Big Bang Theory - S05E13 - The Recombination Hypothesis - 720p WEB-DL H.264 {$H@uN}.mkv\nOriginal air date              : January 19 2012\nGenre                          : Sitcom\nLanguage                       : English\nEncoder                        : $H@uN\nFile format                    : Matroska\nFile size                      : 200 MiB\nDuration                       : 21mn 20s\nOverall bit rate               : 1 301 Kbps\n\n\nVideo:\n\nFormat                         : AVC\nDuration                       : 21mn 30s\nBit rate                       : 1 200 Kbps\nWidth                          : 1 280 pixels\nHeight                         : 720 pixels\nDisplay aspect ratio           : 16:9\nFrame rate mode                : Variable\nFrame rate                     : 23.976 fps\nColor space                    : YUV\nChroma subsampling             : 4:2:0\nBit depth                      : 8 bits\nScan type                      : Progressive\nBits/(Pixel*Frame)             : 0.054\nStream size                    : 181 MiB (91%)\nWriting library                : x264 core 112\nLaguage                        : English\nSubtitles                      : Seperate .srt file included\n\n\nAudio:\n\nFormat                         : AC-3\nMode extension                 : CM (complete main)\nCodec ID                       : A_AC3\nDuration                       : 21mn 30s\nBit rate mode                  : Constant\nBit rate                       : 96 Kbps\nChannel(s)                     : 2 channels\nChannel positions              : Front: L R\nSampling rate                  : 48.0 KHz\nBit depth                      : 16 bits\nCompression mode               : Lossy\nStream size                    : 14.8 MiB (7%)\nLanguage                       : English\n\nScreen Shots:\n &lt;a href=&quot;\nhttp://i1140.photobucket.com/albums/n566/ShaunGP/ScreenShots2/TheBigBangTheoryS05E13TheRecombinationHypothesis720pWEB-DLH264mkv_snapshot_0051_20120121_152407.jpg&quot; rel=&quot;nofollow&quot; target=&quot;_NEW&quot;&gt;\nhttp://i1140.photobucket.com/albums/n566/ShaunGP/ScreenShots2/TheBigBangTheoryS05E13TheRecombinationHypothesis720pWEB-DLH264mkv_snapshot_0051_20120121_152407.jpg&lt;/a&gt;\n &lt;a href=&quot;\nhttp://i1140.photobucket.com/albums/n566/ShaunGP/ScreenShots2/TheBigBangTheoryS05E13TheRecombinationHypothesis720pWEB-DLH264mkv_snapshot_0149_20120121_152455.jpg&quot; rel=&quot;nofollow&quot; target=&quot;_NEW&quot;&gt;\nhttp://i1140.photobucket.com/albums/n566/ShaunGP/ScreenShots2/TheBigBangTheoryS05E13TheRecombinationHypothesis720pWEB-DLH264mkv_snapshot_0149_20120121_152455.jpg&lt;/a&gt;\n &lt;a href=&quot;\nhttp://i1140.photobucket.com/albums/n566/ShaunGP/ScreenShots2/TheBigBangTheoryS05E13TheRecombinationHypothesis720pWEB-DLH264mkv_snapshot_0453_20120121_152533.jpg&quot; rel=&quot;nofollow&quot; target=&quot;_NEW&quot;&gt;\nhttp://i1140.photobucket.com/albums/n566/ShaunGP/ScreenShots2/TheBigBangTheoryS05E13TheRecombinationHypothesis720pWEB-DLH264mkv_snapshot_0453_20120121_152533.jpg&lt;/a&gt;\n\n\nEncoder's Notes:\n\nDo Provide Feedback.\nKeep in Mind, you are charged nothing for Downloading a TORRENT,\nso its your duty to SEED n keep the torrent alive for as long as possible.\nEnjoy..!!! Keep Seeding till 1:1 ratio...","torrent":{"xt":"urn:btih:f2bed4bb8b147e5dd9d0569cf98b8b7f4eb9694c","amp;dn":"The+Big+Bang+Theory+-+S05E13+-+720p+WEB-DL+H.264+%7B%24H%40uN%7D","amp;tr":["udp%3A%2F%2Ftracker.openbittorrent.com%3A80","udp%3A%2F%2Fopen.demonii.com%3A1337","udp%3A%2F%2Ftracker.coppersurfer.tk%3A6969","udp%3A%2F%2Fexodus.desync.com%3A6969"],"infoHash":"f2bed4bb8b147e5dd9d0569cf98b8b7f4eb9694c","infoHashBuffer":{"type":"Buffer","data":[242,190,212,187,139,20,126,93,217,208,86,156,249,139,139,127,78,185,105,76]},"announce":[],"urlList":[]}}